{"title":"Creature (2014) - 1CD - DVDSCR-Rip - Hindi - x264 - MP3 - Mafiak","uid":11023522,"size":743024754,"categoryP":"video","categoryS":"movies","magnet":"?xt=urn:btih:36361751b95ec73fdd5433863f8f731020011e0c&amp;dn=Creature+%282014%29+-+1CD+-+DVDSCR-Rip+-+Hindi+-+x264+-+MP3+-+Mafiak&amp;tr=udp%3A%2F%2Ftracker.openbittorrent.com%3A80&amp;tr=udp%3A%2F%2Fopen.demonii.com%3A1337&amp;tr=udp%3A%2F%2Ftracker.coppersurfer.tk%3A6969&amp;tr=udp%3A%2F%2Fexodus.desync.com%3A6969","seeders":2,"leechers":0,"uploader":"inovai","files":3,"time":1410633793,"description":"Creature (2014) - 1CD - DVDSCR-Rip - Hindi - x264 - MP3 - Mafiaking - TeamTNT\n\nCover:\n &lt;a href=&quot;\nhttp://forum.primetimeshow.in/viewtopic.php?f=7&amp;t=671&quot; rel=&quot;nofollow&quot; target=&quot;_NEW&quot;&gt;\nhttp://forum.primetimeshow.in/viewtopic.php?f=7&amp;t=671&lt;/a&gt;\n\nGENRE: Horror | Sci-Fi\n\nScreenshots:\n &lt;a href=&quot;\nhttp://m.primetimeshow.in/share-AFE0_54147325.html&quot; rel=&quot;nofollow&quot; target=&quot;_NEW&quot;&gt;\nhttp://m.primetimeshow.in/share-AFE0_54147325.html&lt;/a&gt;\n &lt;a href=&quot;\nhttp://m.primetimeshow.in/share-FD74_54147325.html&quot; rel=&quot;nofollow&quot; target=&quot;_NEW&quot;&gt;\nhttp://m.primetimeshow.in/share-FD74_54147325.html&lt;/a&gt;\n &lt;a href=&quot;\nhttp://m.primetimeshow.in/share-5477_54147325.html&quot; rel=&quot;nofollow&quot; target=&quot;_NEW&quot;&gt;\nhttp://m.primetimeshow.in/share-5477_54147325.html&lt;/a&gt;\n &lt;a href=&quot;\nhttp://m.primetimeshow.in/share-97F3_54147325.html&quot; rel=&quot;nofollow&quot; target=&quot;_NEW&quot;&gt;\nhttp://m.primetimeshow.in/share-97F3_54147325.html&lt;/a&gt;\n &lt;a href=&quot;\nhttp://m.primetimeshow.in/share-7584_54147325.html&quot; rel=&quot;nofollow&quot; target=&quot;_NEW&quot;&gt;\nhttp://m.primetimeshow.in/share-7584_54147325.html&lt;/a&gt;\n\n\nGeneral\nUnique ID : 207090158987187542921160061373867351623 (0x9BCC1D247EF5AE57B3E06EA9D423DE47)\nComplete name : Creature (2014) - 1CD - DVDSCR-Rip - Hindi - x264 - MP3 - Mafiaking - TeamTNT.mkv\nFormat : Matroska\nFormat version : Version 4 / Version 2\nFile size : 703 MiB\nDuration : 2h 9mn\nOverall bit rate : 762 Kbps\nMovie name : Creature (2014) - 1CD - DVDSCR-Rip - Hindi - x264 - MP3 - Mafiaking - TeamTNT\nEncoded date : UTC 2014-09-13 11:31:47\nWriting application : mkvmerge v7.0.0 ('Where We Going') 32bit built on Jun 9 2014 15:08:34\nWriting library : libebml v1.3.0 + libmatroska v1.4.1\n\n\nVideo\nID : 1\nFormat : AVC\nFormat/Info : Advanced Video Codec\nFormat profile : &lt;a class=&quot;__cf_email__&quot; href=&quot;/cdn-cgi/l/email-protection&quot; data-cfemail=&quot;1d55747a755d512f332c&quot;&gt;[email&amp;#160;protected]&lt;/a&gt;&lt;script cf-hash='f9e31' type=&quot;text/javascript&quot;&gt;\n/* &lt;![CDATA[ */!function(){try{var t=&quot;currentScript&quot;in document?document.currentScript:function(){for(var t=document.getElementsByTagName(&quot;script&quot;),e=t.length;e--;)if(t[e].getAttribute(&quot;cf-hash&quot;))return t[e]}();if(t&amp;&amp;t.previousSibling){var e,r,n,i,c=t.previousSibling,a=c.getAttribute(&quot;data-cfemail&quot;);if(a){for(e=&quot;&quot;,r=parseInt(a.substr(0,2),16),n=2;a.length-n;n+=2)i=parseInt(a.substr(n,2),16)^r,e+=String.fromCharCode(i);e=document.createTextNode(e),c.parentNode.replaceChild(e,c)}}}catch(u){}}();/* ]]&gt; */&lt;/script&gt;\nFormat settings, CABAC : Yes\nFormat settings, ReFrames : 4 frames\nCodec ID : V_MPEG4/ISO/AVC\nDuration : 2h 9mn\nBit rate : 680 Kbps\nWidth : 640 pixels\nHeight : 272 pixels\nDisplay aspect ratio : 2.35:1\nFrame rate mode : Constant\nFrame rate : 25.000 fps\nColor space : YUV\nChroma subsampling : 4:2:0\nBit depth : 8 bits\nScan type : Progressive\nBits/(Pixel*Frame) : 0.156\nStream size : 616 MiB (88%)\nTitle : Mafiaking\nLanguage : Hindi\nDefault : Yes\nForced : No\n\n\nID : 2\nFormat : MPEG Audio\nFormat version : Version 1\nFormat profile : Layer 3\nMode : Joint stereo\nMode extension : MS Stereo\nCodec ID : A_MPEG/L3\nCodec ID/Hint : MP3\nDuration : 2h 9mn\nBit rate mode : Constant\nBit rate : 80.0 Kbps\nChannel(s) : 2 channels\nSampling rate : 32.0 KHz\nCompression mode : Lossy\nStream size : 73.9 MiB (11%)\nTitle : Mafiaking\nWriting library : LAME3.99r\nEncoding settings : -m j -V 4 -q 2 -lowpass 13.5 -b 80\nLanguage : Hindi\nDefault : Yes\nForced : No\n\n\nSAMPLE WITH IN TORRENT\n\nThanks to Mafiaking - TeamTNT!!\n\nSeed n Enjoy!!\n","torrent":{"xt":"urn:btih:36361751b95ec73fdd5433863f8f731020011e0c","amp;dn":"Creature+%282014%29+-+1CD+-+DVDSCR-Rip+-+Hindi+-+x264+-+MP3+-+Mafiak","amp;tr":["udp%3A%2F%2Ftracker.openbittorrent.com%3A80","udp%3A%2F%2Fopen.demonii.com%3A1337","udp%3A%2F%2Ftracker.coppersurfer.tk%3A6969","udp%3A%2F%2Fexodus.desync.com%3A6969"],"infoHash":"36361751b95ec73fdd5433863f8f731020011e0c","infoHashBuffer":{"type":"Buffer","data":[54,54,23,81,185,94,199,63,221,84,51,134,63,143,115,16,32,1,30,12]},"announce":[],"urlList":[]}}